<svg xmlns="http://www.w3.org/2000/svg" width="920" height="560" viewBox="0 0 920 560">
  <rect width="920" height="560" fill="#fbfaf7"/>
  <text x="460.0" y="38" text-anchor="middle" font-family="Georgia, 'Times New Roman', serif" font-size="23" fill="#1f2933">Latent Code Norm Distribution</text>
  <text x="460.0" y="64" text-anchor="middle" font-family="Arial, sans-serif" font-size="13" fill="#52616b">Cautious cross-class summary: norms are more comparable than coordinates, but decoders may still differ.</text>
  <rect x="65" y="65" width="790" height="395" rx="14" fill="#ffffff" stroke="#d8dee4"/>
  <line x1="65" y1="460" x2="855" y2="460" stroke="#1f2933"/>
  <line x1="65" y1="65" x2="65" y2="460" stroke="#1f2933"/>
  <polyline points="80.80,411.58 112.40,392.59 144.00,383.09 175.60,392.59 207.20,391.64 238.80,393.54 270.40,410.63 302.00,402.08 333.60,399.23 365.20,416.32 396.80,419.17 428.40,406.83 460.00,418.22 491.60,418.22 523.20,410.63 554.80,414.42 586.40,411.58 618.00,408.73 649.60,407.78 681.20,397.33 712.80,337.52 744.40,189.40 776.00,315.68 807.60,441.01 839.20,453.35" fill="none" stroke="#2563eb" stroke-width="3"/><polyline points="80.80,460.00 112.40,460.00 144.00,460.00 175.60,460.00 207.20,460.00 238.80,460.00 270.40,460.00 302.00,460.00 333.60,460.00 365.20,460.00 396.80,458.15 428.40,458.15 460.00,443.38 491.60,432.29 523.20,400.89 554.80,378.73 586.40,367.64 618.00,299.30 649.60,280.83 681.20,301.15 712.80,194.02 744.40,79.49 776.00,240.19 807.60,448.92 839.20,460.00" fill="none" stroke="#d97706" stroke-width="3"/><polyline points="80.80,460.00 112.40,460.00 144.00,460.00 175.60,460.00 207.20,460.00 238.80,460.00 270.40,460.00 302.00,458.98 333.60,458.47 365.20,454.91 396.80,447.78 428.40,440.66 460.00,441.17 491.60,429.46 523.20,409.61 554.80,410.12 586.40,393.83 618.00,367.87 649.60,350.05 681.20,292.53 712.80,175.97 744.40,65.00 776.00,210.07 807.60,378.56 839.20,438.11" fill="none" stroke="#059669" stroke-width="3"/>
  <circle cx="85" cy="515" r="6" fill="#2563eb"/><text x="99" y="520" font-family="Arial, sans-serif" font-size="13" fill="#1f2933">airplane dim256</text><circle cx="275" cy="515" r="6" fill="#d97706"/><text x="289" y="520" font-family="Arial, sans-serif" font-size="13" fill="#1f2933">lamp dim256</text><circle cx="465" cy="515" r="6" fill="#059669"/><text x="479" y="520" font-family="Arial, sans-serif" font-size="13" fill="#1f2933">chair dim256</text>
</svg>
